<svg width="81" height="23" viewBox="0 0 81 23" fill="none" xmlns="http://www.w3.org/2000/svg">
<path d="M2.52667 20.9465L10.9212 3.66406C10.9212 3.66406 3.57596 7.00905 2.00199 10.9115C0.428017 14.814 0.927102 18.4038 2.00201 20.9465" stroke="#499A18" stroke-linecap="round" stroke-linejoin="round"/>
<path d="M1.99646 20.9925C1.99646 20.9925 27.7102 -8.60087 19.3157 4.2216C10.9212 17.0441 20.1707 6.63145 15.4973 14.0678C10.824 21.5041 1.99646 20.9925 1.99646 20.9925Z" stroke="#499A18" stroke-linejoin="round"/>
<path d="M26.9264 9.84126C28.2811 9.84126 29.2837 10.0653 29.9344 10.5133C30.5957 10.9506 30.9264 11.7293 30.9264 12.8493C30.9264 13.9693 30.6011 14.8599 29.9504 15.5213C29.2997 16.1719 28.2491 16.4973 26.7984 16.4973H25.4544L25.4064 19.9693L26.6544 20.0813C26.6544 20.3799 26.5637 20.6999 26.3824 21.0413H22.7824L22.7344 20.4973C23.1824 20.3266 23.6411 20.1986 24.1104 20.1133C24.0464 15.9533 23.9931 12.8599 23.9504 10.8333C23.6624 10.7799 23.1931 10.6519 22.5424 10.4493L22.6224 9.84126H26.9264ZM26.6384 15.4573C27.5557 15.4466 28.2544 15.2173 28.7344 14.7693C29.2144 14.3106 29.4544 13.7079 29.4544 12.9613C29.4544 12.2146 29.2197 11.6973 28.7504 11.4093C28.2811 11.1106 27.5291 10.9613 26.4944 10.9613C26.3024 10.9613 25.9771 10.9666 25.5184 10.9773C25.5184 10.9879 25.5024 12.4866 25.4704 15.4733L26.6384 15.4573ZM33.9855 9.15326C34.3162 9.15326 34.5508 9.16393 34.6895 9.18526C34.6895 9.55859 34.6202 9.98526 34.4815 10.4653C34.3855 16.7586 34.3375 19.9213 34.3375 19.9533L35.6815 20.0813C35.6815 20.3799 35.5908 20.6999 35.4095 21.0413H31.7295L31.6815 20.4813C32.1722 20.3106 32.6522 20.1826 33.1215 20.0973L32.9615 10.4173C32.3748 10.3853 31.9055 10.3213 31.5535 10.2253L31.6175 9.39326C32.1615 9.23326 32.9508 9.15326 33.9855 9.15326ZM42.9763 15.8093L42.8963 19.9373C43.3549 19.9693 43.8136 20.0439 44.2723 20.1613L44.2403 20.7213C44.0696 20.8066 43.7603 20.9026 43.3123 21.0093C42.8749 21.1053 42.4429 21.1533 42.0163 21.1533C41.8243 20.7693 41.7176 20.4013 41.6963 20.0493C40.4803 20.8493 39.6269 21.2493 39.1363 21.2493C38.3789 21.2493 37.7709 21.0466 37.3123 20.6413C36.8536 20.2359 36.6243 19.6706 36.6243 18.9453C36.6243 17.2706 37.6483 16.4066 39.6963 16.3533C40.8909 16.3213 41.4936 16.3053 41.5043 16.3053L41.4883 15.7613C41.4669 15.0253 41.3283 14.4973 41.0723 14.1773C40.8163 13.8466 40.3576 13.6813 39.6963 13.6813C39.4189 13.6813 39.1203 13.7453 38.8003 13.8733L38.4163 15.4733C38.3629 15.4839 38.2723 15.4893 38.1443 15.4893L37.4883 15.4413C37.3176 14.9826 37.2269 14.3479 37.2163 13.5373C37.4189 13.4306 37.8829 13.2706 38.6083 13.0573C39.3336 12.8333 39.7976 12.7213 40.0003 12.7213C41.0883 12.7213 41.8563 12.9613 42.3043 13.4413C42.7523 13.9213 42.9763 14.7106 42.9763 15.8093ZM39.4883 20.1613C39.7976 20.1613 40.5123 19.8146 41.6323 19.1213L41.5523 17.1213C40.8269 17.1853 40.2189 17.2439 39.7283 17.2973C39.2376 17.3506 38.8429 17.4946 38.5443 17.7293C38.2456 17.9533 38.0963 18.3106 38.0963 18.8013C38.0963 19.7079 38.5603 20.1613 39.4883 20.1613ZM50.1613 12.7213C51.1853 12.7213 51.9266 12.9773 52.3853 13.4893C52.8439 13.9906 53.0733 14.7586 53.0733 15.7933C53.0733 16.0919 53.0306 17.4786 52.9453 19.9533L54.2893 20.0813C54.2893 20.3799 54.1986 20.6999 54.0173 21.0413H50.3373L50.2893 20.4813C50.7799 20.3106 51.2599 20.1826 51.7293 20.0973C51.6653 17.3026 51.6066 15.7506 51.5533 15.4413C51.5106 15.1213 51.4359 14.8439 51.3293 14.6093C51.2226 14.3746 51.0626 14.2093 50.8493 14.1133C50.6359 14.0173 50.3533 13.9693 50.0013 13.9693C49.2973 13.9693 48.6146 14.1399 47.9533 14.4813C47.8893 16.9133 47.8466 18.7373 47.8253 19.9533L49.1693 20.0813C49.1693 20.3799 49.0786 20.6999 48.8973 21.0413H45.2173L45.1693 20.4813C45.6599 20.3106 46.1399 20.1826 46.6093 20.0973C46.5453 17.3879 46.4919 15.3826 46.4493 14.0813C45.8626 14.0493 45.3933 13.9853 45.0413 13.8893L45.1053 13.0573C45.6813 12.8973 46.5186 12.8173 47.6173 12.8173C47.7453 13.0093 47.8413 13.2866 47.9053 13.6493C48.3639 13.4039 48.8226 13.1906 49.2813 13.0093C49.7506 12.8173 50.0439 12.7213 50.1613 12.7213ZM56.2126 20.0493L56.0846 14.0173H54.8526L54.8046 13.4573C54.9113 13.3826 55.2206 13.2439 55.7326 13.0413L57.0446 10.9933C57.258 11.0146 57.4233 11.0679 57.5406 11.1533L57.5246 12.9133C58.3246 12.9133 58.9806 12.9666 59.4926 13.0733C59.4926 13.3613 59.402 13.6759 59.2206 14.0173H57.4926C57.4713 15.2973 57.45 17.2386 57.4286 19.8413C58.026 19.8733 58.6233 19.9799 59.2206 20.1613L59.2046 20.7213C59.0553 20.8173 58.6713 20.9293 58.0526 21.0573C57.4446 21.1853 56.9433 21.2493 56.5486 21.2493C56.4953 21.1639 56.426 20.9826 56.3406 20.7053C56.2553 20.4173 56.2126 20.1986 56.2126 20.0493ZM61.9191 20.0173C62.2925 20.1773 62.7458 20.2573 63.2791 20.2573C63.8231 20.2573 64.2498 20.1559 64.5591 19.9533C64.8685 19.7506 65.0231 19.4733 65.0231 19.1213C65.0231 18.7693 64.8791 18.4759 64.5911 18.2413C64.3031 18.0066 63.9511 17.7986 63.5351 17.6173C63.1191 17.4359 62.7031 17.2439 62.2871 17.0413C61.8711 16.8386 61.5191 16.5719 61.2311 16.2413C60.9431 15.9106 60.7991 15.5266 60.7991 15.0893C60.7991 14.3533 61.0445 13.7773 61.5351 13.3613C62.0258 12.9346 62.7031 12.7213 63.5671 12.7213C64.4418 12.7213 65.2631 12.9186 66.0311 13.3133C66.0418 13.4199 66.0471 13.7079 66.0471 14.1773C66.0471 14.6359 65.9991 15.0306 65.9031 15.3613C65.6471 15.4466 65.3431 15.4893 64.9911 15.4893L64.4631 13.8573C64.2285 13.7399 63.9085 13.6813 63.5031 13.6813C63.1085 13.6813 62.7938 13.7879 62.5591 14.0013C62.3245 14.2039 62.2071 14.4653 62.2071 14.7853C62.2071 15.0946 62.3511 15.3666 62.6391 15.6013C62.9378 15.8359 63.2951 16.0493 63.7111 16.2413C64.1271 16.4226 64.5431 16.6199 64.9591 16.8333C65.3751 17.0359 65.7271 17.3079 66.0151 17.6493C66.3138 17.9799 66.4631 18.3639 66.4631 18.8013C66.4631 19.5693 66.1645 20.1719 65.5671 20.6093C64.9805 21.0359 64.2551 21.2493 63.3911 21.2493C62.9218 21.2493 62.4205 21.1746 61.8871 21.0253C61.3538 20.8653 60.9058 20.6626 60.5431 20.4173C60.5431 19.7026 60.6071 19.0679 60.7351 18.5133C60.9805 18.4706 61.3111 18.4493 61.7271 18.4493L61.9191 20.0173Z" fill="black"/>
</svg>
