<svg width="32" height="32" viewBox="0 0 32 32" fill="none" xmlns="http://www.w3.org/2000/svg">
<path d="M29.333 7.83998C28.333 8.33298 27.333 8.50698 26.16 8.66698C27.333 7.99998 28.16 6.99998 28.493 5.66698C27.488 6.27498 26.317 6.73798 25.07 6.98898L25 7.00098C23.969 5.98698 22.56 5.35498 21.004 5.33398H21C18.16 5.33398 15.667 7.84098 15.667 10.841C15.667 11.334 15.667 11.668 15.84 12.001C11.262 11.823 7.221 9.66398 4.529 6.36198L4.507 6.33398C4.082 7.05998 3.831 7.93198 3.831 8.86298C3.831 8.97198 3.834 9.08098 3.841 9.18898L3.84 9.17398C3.874 11.052 4.849 12.695 6.313 13.655L6.334 13.668C5.494 13.668 4.667 13.335 3.827 13.001C3.827 15.668 5.667 17.841 8.16 18.334C7.667 18.507 7.16 18.507 6.667 18.507C6.334 18.507 6 18.507 5.667 18.334C6.334 20.507 8.334 22.174 10.84 22.174C9.04 23.629 6.724 24.509 4.203 24.509C4.132 24.509 4.061 24.508 3.99 24.507H4.001H2.668C5.033 26.016 7.904 26.936 10.984 27H11.001C21.001 27 26.508 18.667 26.508 11.493V10.826C27.655 10.036 28.601 9.03898 29.311 7.88198L29.335 7.83998H29.333Z" fill="black"/>
</svg>
