<svg width="141" height="52" viewBox="0 0 141 52" fill="none" xmlns="http://www.w3.org/2000/svg">
<g clip-path="url(#clip0_119_35)">
<path d="M72.7956 17.2236L79.5038 16.793C79.6568 17.8822 79.9374 18.6927 80.3965 19.2753C81.1362 20.1871 82.1565 20.643 83.5083 20.643C84.5031 20.643 85.2938 20.4151 85.8294 19.9338C86.3395 19.5539 86.6456 18.946 86.6456 18.3128C86.6456 17.7049 86.3651 17.1223 85.8804 16.7424C85.3703 16.2865 84.1715 15.8305 82.284 15.4253C79.1977 14.7414 76.9787 13.8296 75.6778 12.6644C74.377 11.5753 73.6373 9.9796 73.6883 8.28257C73.6883 7.11744 74.0454 5.95232 74.7086 4.98982C75.4738 3.90069 76.5195 3.03951 77.7693 2.55826C79.1212 1.9757 81.0087 1.67175 83.3808 1.67175C86.2885 1.67175 88.5076 2.20366 90.038 3.2928C91.5684 4.3566 92.4866 6.07896 92.7672 8.43454L86.1355 8.81447C85.9569 7.80132 85.5998 7.06678 85.0132 6.58554C84.4266 6.10429 83.6614 5.87633 82.6666 5.87633C81.8504 5.87633 81.2382 6.05363 80.8301 6.38291C80.4475 6.68685 80.1925 7.14277 80.218 7.64935C80.218 8.02928 80.422 8.38388 80.7281 8.61184C81.0597 8.91579 81.8504 9.1944 83.1002 9.44769C86.1865 10.1062 88.3801 10.7648 89.7319 11.4487C91.0837 12.1325 92.053 12.9684 92.6397 13.9562C93.2518 14.9694 93.5579 16.1345 93.5324 17.3249C93.5324 18.7434 93.1243 20.1618 92.3081 21.3522C91.4663 22.5933 90.2931 23.5558 88.9157 24.1384C87.4618 24.7716 85.6254 25.1009 83.4318 25.1009C79.5548 25.1009 76.8766 24.3663 75.3717 22.872C73.8669 21.3776 72.9741 19.5032 72.7956 17.2236ZM1.60691 24.721V2.07701H13.3654C15.5335 2.07701 17.2169 2.25431 18.3647 2.63425C19.487 2.98885 20.4817 3.72338 21.1449 4.71121C21.8846 5.80035 22.2417 7.06678 22.2162 8.38388C22.2927 10.6128 21.1449 12.7404 19.1809 13.8549C18.4157 14.2855 17.574 14.5894 16.7068 14.7414C17.3444 14.9187 17.9821 15.2227 18.5432 15.5773C18.9768 15.9319 19.3339 16.3371 19.6655 16.7677C20.0481 17.1983 20.3797 17.6795 20.6603 18.1861L24.0781 24.7463H16.0691L12.2941 17.7809C11.8095 16.8944 11.4014 16.3118 11.0188 16.0332C10.5087 15.6786 9.89653 15.5013 9.28437 15.5013H8.67221V24.6956H1.60691V24.721ZM8.67221 11.246H11.6565C12.2941 11.1954 12.9063 11.0941 13.5185 10.9421C13.9776 10.8661 14.3857 10.6128 14.6662 10.2329C15.3549 9.32105 15.2529 8.02928 14.4112 7.24409C13.9521 6.86415 13.0593 6.66152 11.784 6.66152H8.67221V11.246ZM0 44.1228L6.70821 43.6922C6.86125 44.7813 7.14182 45.5919 7.60094 46.1744C8.31512 47.0863 9.36089 47.5675 10.7127 47.5675C11.7075 47.5675 12.4982 47.3396 13.0338 46.8583C13.544 46.453 13.85 45.8705 13.85 45.2373C13.85 44.6294 13.5695 44.0468 13.0848 43.6669C12.5747 43.211 11.3759 42.755 9.46292 42.3498C6.37663 41.6659 4.15756 40.7541 2.85673 39.5889C1.5559 38.4998 0.816208 36.9041 0.867221 35.2071C0.867221 34.0419 1.22431 32.8768 1.88748 31.9143C2.65268 30.8252 3.69844 29.964 4.94826 29.4828C6.30011 28.9002 8.18759 28.5963 10.5597 28.5963C13.4674 28.5963 15.6865 29.1282 17.2169 30.2173C18.7473 31.3064 19.64 33.0035 19.9206 35.359L13.2889 35.739C13.1103 34.7258 12.7533 33.9913 12.1666 33.51C11.6055 33.0288 10.8148 32.8008 9.82001 32.8262C9.0038 32.8262 8.39164 33.0035 7.98354 33.3581C7.57543 33.662 7.34588 34.1179 7.37138 34.6245C7.37138 35.0044 7.57543 35.359 7.88151 35.587C8.2131 35.8909 9.0038 36.1696 10.2536 36.4228C13.3399 37.0814 15.5335 37.7399 16.8853 38.4238C18.2372 39.1077 19.2064 39.9436 19.7931 40.9314C20.4052 41.9445 20.7113 43.1096 20.7113 44.2748C20.7113 45.6932 20.2777 47.0863 19.487 48.2767C18.6453 49.5178 17.472 50.4803 16.0946 51.0629C14.6407 51.6961 12.8043 52.0254 10.6107 52.0254C6.73372 52.0254 4.05554 51.2908 2.55065 49.7965C1.04577 48.2767 0.204052 46.4024 0 44.1228H0Z" fill="black"/>
<path d="M33.9237 42.3497L40.0962 44.1987C39.7647 45.7438 39.076 47.2128 38.1322 48.5046C37.265 49.6444 36.1172 50.5309 34.8164 51.1135C33.4901 51.696 31.8066 52 29.7661 52C27.292 52 25.2514 51.6454 23.6956 50.9362C22.1141 50.227 20.7623 48.9605 19.6145 47.1622C18.4667 45.3638 17.9056 43.0589 17.9056 40.2474C17.9056 36.4988 18.9003 33.6113 20.9153 31.6103C22.9304 29.6093 25.7616 28.5962 29.4345 28.5962C32.3168 28.5962 34.5613 29.1788 36.2192 30.3185C37.8517 31.4837 39.076 33.2567 39.8922 35.6376L33.6686 37.0053C33.5156 36.4734 33.286 35.9415 32.9799 35.4856C32.5973 34.9537 32.1127 34.5485 31.526 34.2445C30.9394 33.9406 30.2762 33.8139 29.6131 33.8139C28.0062 33.8139 26.7818 34.4471 25.9401 35.7389C25.3025 36.6761 24.9709 38.1705 24.9709 40.1968C24.9709 42.7043 25.3535 44.4267 26.1187 45.3638C26.8839 46.301 27.9551 46.7569 29.358 46.7569C30.7098 46.7569 31.7301 46.377 32.4188 45.6425C33.1075 44.8573 33.6176 43.7681 33.9237 42.3497ZM48.3348 28.9761H55.3746V36.904H63.0776V28.9761H70.1684V51.6201H63.0776V42.451H55.3746V51.6201H48.3348V28.9761Z" fill="black"/>
<path d="M69.1992 40.2982C69.1992 36.6001 70.2449 33.7127 72.311 31.661C74.377 29.6094 77.2847 28.5709 80.9832 28.5709C84.7836 28.5709 87.6914 29.5841 89.7574 31.6104C91.8234 33.6367 92.8437 36.4735 92.8437 40.1208C92.8437 42.7804 92.3846 44.9333 91.4919 46.6304C90.6246 48.302 89.2728 49.6698 87.6149 50.5816C85.9059 51.5188 83.7889 52.0001 81.2638 52.0001C78.6876 52.0001 76.5706 51.5948 74.8871 50.7843C73.1527 49.9231 71.7243 48.5807 70.7806 46.9343C69.7348 45.1613 69.1992 42.9577 69.1992 40.2982ZM76.239 40.3235C76.239 42.6031 76.6726 44.2494 77.5143 45.2626C78.356 46.2504 79.5293 46.757 81.0087 46.757C82.5136 46.757 83.6869 46.2757 84.5286 45.2879C85.3703 44.3001 85.7784 42.5524 85.7784 40.0195C85.7784 37.8919 85.3448 36.3215 84.4776 35.359C83.6104 34.3712 82.437 33.89 80.9577 33.89C79.6568 33.8393 78.407 34.3965 77.5398 35.3844C76.6726 36.3722 76.239 38.0186 76.239 40.3235ZM100.062 40.2982C100.062 36.6001 101.108 33.7127 103.174 31.661C105.24 29.6094 108.148 28.5709 111.846 28.5709C115.647 28.5709 118.58 29.5841 120.62 31.6104C122.661 33.6367 123.707 36.4735 123.707 40.1208C123.707 42.7804 123.247 44.9333 122.355 46.6304C121.488 48.302 120.136 49.6698 118.478 50.5816C116.769 51.5188 114.652 52.0001 112.127 52.0001C109.55 52.0001 107.433 51.5948 105.75 50.7843C104.016 49.9231 102.587 48.5807 101.643 46.9343C100.598 45.1613 100.062 42.9577 100.062 40.2982ZM107.102 40.3235C107.102 42.6031 107.535 44.2494 108.377 45.2626C109.219 46.2504 110.392 46.757 111.872 46.757C113.376 46.757 114.55 46.2757 115.391 45.2879C116.233 44.3001 116.641 42.5524 116.641 40.0195C116.641 37.8919 116.208 36.3215 115.34 35.359C114.473 34.3712 113.3 33.89 111.821 33.89C110.52 33.8393 109.244 34.3965 108.403 35.3844C107.535 36.3722 107.102 38.0186 107.102 40.3235Z" fill="black"/>
<path d="M122.967 28.9761H130.007V46.0477H141V51.62H122.941V28.9761H122.967Z" fill="black"/>
<path d="M115.207 27.6694C122.295 22.3655 124.481 13.3746 120.089 7.58768C115.698 1.80073 106.392 1.40909 99.3043 6.71294C92.2167 12.0168 90.0312 21.0077 94.4227 26.7946C98.8143 32.5816 108.12 32.9732 115.207 27.6694Z" fill="white"/>
<path d="M76.3473 14.321L112.973 -13.0869L138.317 20.3098L101.691 47.7178L76.3473 14.321Z" fill="white"/>
<path d="M115.207 27.6694C122.295 22.3655 124.481 13.3746 120.089 7.58768C115.698 1.80073 106.392 1.40909 99.3043 6.71294C92.2167 12.0168 90.0312 21.0077 94.4227 26.7946C98.8143 32.5816 108.12 32.9732 115.207 27.6694Z" fill="white"/>
<path d="M86.5463 16.5511L112.193 -2.6401L128.111 18.3368L102.464 37.5281L86.5463 16.5511Z" fill="white"/>
<path d="M115.207 27.6694C122.295 22.3655 124.481 13.3746 120.089 7.58768C115.698 1.80073 106.392 1.40909 99.3043 6.71294C92.2167 12.0168 90.0312 21.0077 94.4227 26.7946C98.8143 32.5816 108.12 32.9732 115.207 27.6694Z" fill="white" stroke="black" stroke-width="4" stroke-miterlimit="10"/>
<path d="M86.5463 16.5511L112.193 -2.6401L128.111 18.3368L102.464 37.5281L86.5463 16.5511Z" stroke="black" stroke-width="4" stroke-miterlimit="10"/>
<path d="M115.207 27.6694C122.295 22.3655 124.481 13.3746 120.089 7.58768C115.698 1.80073 106.392 1.40909 99.3043 6.71294C92.2167 12.0168 90.0312 21.0077 94.4227 26.7946C98.8143 32.5816 108.12 32.9732 115.207 27.6694Z" stroke="black" stroke-width="4" stroke-miterlimit="10"/>
<path d="M86.5463 16.5511L112.193 -2.6401L128.111 18.3368L102.464 37.5281L86.5463 16.5511Z" fill="white"/>
<path d="M115.207 27.6694C122.295 22.3655 124.481 13.3746 120.089 7.58768C115.698 1.80073 106.392 1.40909 99.3043 6.71294C92.2167 12.0168 90.0312 21.0077 94.4227 26.7946C98.8143 32.5816 108.12 32.9732 115.207 27.6694Z" fill="white" stroke="black" stroke-width="4" stroke-miterlimit="10"/>
<path d="M86.5463 16.5511L112.193 -2.6401L128.111 18.3368L102.464 37.5281L86.5463 16.5511Z" stroke="black" stroke-width="4" stroke-miterlimit="10"/>
<path d="M76.3473 14.321L112.973 -13.0869L138.317 20.3098L101.691 47.7178L76.3473 14.321Z" stroke="black" stroke-width="4" stroke-miterlimit="10"/>
<path d="M115.207 27.6694C122.295 22.3655 124.481 13.3746 120.089 7.58768C115.698 1.80073 106.392 1.40909 99.3043 6.71294C92.2167 12.0168 90.0312 21.0077 94.4227 26.7946C98.8143 32.5816 108.12 32.9732 115.207 27.6694Z" stroke="black" stroke-width="4" stroke-miterlimit="10"/>
<path d="M100.088 15.5265L102.638 13.7535L105.776 18.1861C106.311 18.8953 106.719 19.6551 107.025 20.491C107.204 21.1242 107.153 21.8081 106.898 22.416C106.566 23.1758 106.031 23.809 105.316 24.265C104.475 24.8475 103.76 25.1768 103.148 25.2781C102.562 25.3794 101.95 25.2781 101.388 25.0248C100.776 24.7209 100.241 24.2903 99.8325 23.7331L102.026 21.7067C102.205 21.9854 102.434 22.2387 102.689 22.4413C102.868 22.5679 103.072 22.6439 103.301 22.6439C103.48 22.6439 103.658 22.5679 103.786 22.4666C104.041 22.3146 104.22 22.0107 104.194 21.7067C104.118 21.2762 103.939 20.8456 103.658 20.5163L100.088 15.5265ZM107.74 18.338L110.061 16.5143C110.316 16.8183 110.647 17.0463 111.004 17.1729C111.514 17.3249 112.05 17.2236 112.484 16.8943C112.79 16.6916 113.045 16.413 113.147 16.0584C113.3 15.6025 113.045 15.0959 112.586 14.944C112.509 14.9186 112.433 14.8933 112.356 14.8933C112.05 14.868 111.514 14.9946 110.724 15.3239C109.423 15.8558 108.403 16.0584 107.637 15.9824C106.898 15.9065 106.209 15.5265 105.801 14.8933C105.495 14.4627 105.342 13.9561 105.316 13.4496C105.316 12.867 105.469 12.2844 105.801 11.8032C106.286 11.1193 106.872 10.5368 107.586 10.0808C108.658 9.3463 109.601 8.9917 110.418 8.9917C111.234 8.9917 111.999 9.37163 112.713 10.1568L110.418 11.9552C109.959 11.3726 109.091 11.246 108.505 11.7019L108.428 11.7779C108.173 11.9298 107.995 12.1578 107.893 12.4364C107.816 12.639 107.867 12.867 107.995 13.0443C108.097 13.1709 108.25 13.2723 108.428 13.2723C108.632 13.2976 108.989 13.1963 109.499 12.9683C110.775 12.4364 111.744 12.1325 112.407 12.0312C112.968 11.9298 113.555 11.9805 114.091 12.2085C114.575 12.4111 114.983 12.7657 115.264 13.1963C115.621 13.7029 115.825 14.3107 115.851 14.944C115.876 15.6025 115.698 16.2357 115.34 16.793C114.881 17.4768 114.295 18.0594 113.606 18.5153C112.203 19.4778 111.055 19.8831 110.137 19.7311C109.142 19.5791 108.326 19.0726 107.74 18.338Z" fill="black"/>
</g>
<defs>
<clipPath id="clip0_119_35">
<rect width="141" height="52" fill="white"/>
</clipPath>
</defs>
</svg>
